<svg xmlns="http://www.w3.org/2000/svg" viewBox="0 0 442.04 188.64"><defs><style>.cls-1{fill:#1a171b}</style></defs><title>logo-en</title><path class="cls-1" d="M0 0h442.04v19.64H0zm0 169h410.87v19.64H0z" id="Bars"/><path class="cls-1" d="M0 63.83q0-20.91 20.61-20.92t20.67 20.92v13.41H26.91V63.83q0-6.7-6.25-6.75h-.1q-6.19 0-6.19 6.75v9q0 6.64 13.45 16.3t13.46 23v12.59q0 21-20.62 21T0 124.76v-13.41h14.37v13.41q0 6.75 6.29 6.75t6.25-6.75v-11.38q0-7.2-13.46-16.85T0 73.17zm88.91-19.34v14.16H75.46v85.45H61.09V58.65H47.63V44.49zm48.14 80.27q0 20.91-20.66 21t-20.62-21V44.49h14.37v80.27q0 6.75 6.25 6.75t6.29-6.75V44.49h14.37zM148 44.49h22.13q19.14 0 19.14 21v57.72q0 20.87-20.05 20.92H148zm14.36 14.16v71.29h6.3q6.24 0 6.24-6.76V65.46q0-6.81-6.24-6.81zm37.56-14.16h14.37v99.61h-14.37zm66.32 80.27q0 20.91-20.66 21t-20.62-21V63.83q0-20.91 20.62-20.92t20.66 20.92zm-14.37-60.93q0-6.7-6.24-6.75h-.1q-6.19 0-6.2 6.75v60.93q0 6.75 6.25 6.75t6.29-6.75zm65.05 60.93q0 20.91-20.66 21t-20.62-21V63.83q0-20.91 20.62-20.92t20.66 20.92v13.41h-14.37V63.83q0-6.7-6.24-6.75h-.1q-6.19 0-6.2 6.75v60.93q0 6.75 6.25 6.75t6.29-6.75V101.4h-7.26V87.19h21.63zM338 44.49l9.8 38.84 9.8-38.84h15.23L355.41 101l-.4 1.21v41.89h-14.37v-41.89l-.46-1.21-17.41-56.51zm73 68.23l16.7-68.23H442v99.61h-13.72V88.2L416 144.1h-9.74L393.6 88.2v55.9h-13.91V44.49h14.37z" id="Main"/><path class="cls-1" d="M426.09 169v2.79h-3v16.85h-3.2v-16.85h-3V169zm9.02 13.46l3.72-13.46H442v19.64h-3v-11l-2.74 11h-2.18l-2.82-11v11h-3.1V169h3.21z" id="TM"/></svg>